<?xml version="1.0" encoding="UTF-8" standalone="no"?><!DOCTYPE svg PUBLIC "-//W3C//DTD SVG 1.1//EN" "http://www.w3.org/Graphics/SVG/1.1/DTD/svg11.dtd"><svg width="100%" height="100%" viewBox="0 0 100 100" version="1.1" xmlns="http://www.w3.org/2000/svg" xmlns:xlink="http://www.w3.org/1999/xlink" xml:space="preserve" xmlns:serif="http://www.serif.com/" style="fill-rule:evenodd;clip-rule:evenodd;stroke-miterlimit:10;"><g><path d="M97.6,83.8l-95.2,0c-1.3,0 -2.33,0.192 -2.4,-0.334l0,-1.8l17,-1.331l19.2,-5.061l15.806,-0.742l16.939,-3.567l15.855,-0.133l15.2,-8.26l-0.1,18.728c0.1,1.5 -1,2.5 -2.3,2.5Z" style="fill:url(#_Linear1);fill-rule:nonzero;"/><path d="M0,81.666l17,-1.374l18.199,-4.688l16.807,-1.204l16.947,-3.235l16.04,-0.536l15.007,-8.057" style="fill:none;stroke:url(#_Linear2);stroke-width:1px;"/><g><path d="M81.207,64.3l0,-25.4l-5.2,3.9l-3.5,-6l9.4,-6.9l6.8,0l0,34.4l-7.5,0Z" style="fill:url(#_Linear3);fill-rule:nonzero;"/><path d="M75.599,60.4c0,1.2 -0.4,2.3 -1.2,3.1c-0.8,0.8 -1.8,1.3 -3,1.3c-1.2,0 -2.2,-0.4 -3,-1.3c-0.8,-0.8 -1.1,-1.9 -1.1,-3.1c0,-1.2 0.4,-2.2 1.1,-3.1c0.8,-0.9 1.8,-1.3 3,-1.3c1.2,0 2.2,0.4 3,1.3c0.8,0.8 1.2,1.9 1.2,3.1Z" style="fill:url(#_Linear4);fill-rule:nonzero;"/><path d="M62.606,39.4c0,1.1 -0.1,2.2 -0.4,3.2c-0.3,1 -0.7,1.9 -1.2,2.8c-0.5,0.9 -1,1.7 -1.7,2.5c-0.6,0.8 -1.2,1.6 -1.9,2.3l-6.4,7.4l11.1,0l0,6.7l-20.3,0l0,-6.9l10.5,-12c0.8,-1 1.5,-2 2,-3c0.5,-1 0.7,-2 0.7,-2.9c0,-1 -0.2,-1.9 -0.7,-2.6c-0.5,-0.7 -1.2,-1.1 -2.2,-1.1c-0.9,0 -1.7,0.4 -2.3,1.1c-0.6,0.8 -1,1.9 -1.1,3.3l-7.3,-0.7c0.4,-3.5 1.6,-6.1 3.6,-7.9c2,-1.7 4.5,-2.6 7.4,-2.6c1.6,0 3,0.2 4.3,0.7c1.3,0.5 2.3,1.2 3.2,2c0.9,0.9 1.6,1.9 2.1,3.2c0.3,1.5 0.6,2.9 0.6,4.5Z" style="fill:url(#_Linear5);fill-rule:nonzero;"/><path d="M34.1,57.4l0,6.9l-6.9,0l0,-6.9l-12.6,0l0,-6.6l10.1,-20.9l9.4,0l0,21.1l3.5,0l0,6.4l-3.5,0Zm-6.7,-19.9l-6,13.5l6,0l0,-13.5Z" style="fill:url(#_Linear6);fill-rule:nonzero;"/></g></g><defs><linearGradient id="_Linear1" x1="0" y1="0" x2="1" y2="0" gradientUnits="userSpaceOnUse" gradientTransform="matrix(1.70828e-15,27.8983,-27.8983,1.70828e-15,50,65.6698)"><stop offset="0" style="stop-color:#fff23a;stop-opacity:0.26"/><stop offset="0.04" style="stop-color:#fee62d;stop-opacity:0.26"/><stop offset="0.12" style="stop-color:#fed41a;stop-opacity:0.26"/><stop offset="0.2" style="stop-color:#fdc90f;stop-opacity:0.26"/><stop offset="0.28" style="stop-color:#fdc60b;stop-opacity:0.26"/><stop offset="0.67" style="stop-color:#f28f3f;stop-opacity:0.26"/><stop offset="0.89" style="stop-color:#ed693c;stop-opacity:0.26"/><stop offset="1" style="stop-color:#e83e39;stop-opacity:0.26"/></linearGradient><linearGradient id="_Linear2" x1="0" y1="0" x2="1" y2="0" gradientUnits="userSpaceOnUse" gradientTransform="matrix(100.126,0,0,100.126,-0.028522,72.3985)"><stop offset="0" style="stop-color:#f28f3f;stop-opacity:1"/><stop offset="1" style="stop-color:#f28f3f;stop-opacity:1"/></linearGradient><linearGradient id="_Linear3" x1="0" y1="0" x2="1" y2="0" gradientUnits="userSpaceOnUse" gradientTransform="matrix(2.95599e-15,-48.2749,48.2749,2.95599e-15,80.7047,76.0776)"><stop offset="0" style="stop-color:#fff23a;stop-opacity:1"/><stop offset="0.04" style="stop-color:#fee62d;stop-opacity:1"/><stop offset="0.12" style="stop-color:#fed41a;stop-opacity:1"/><stop offset="0.2" style="stop-color:#fdc90f;stop-opacity:1"/><stop offset="0.28" style="stop-color:#fdc60b;stop-opacity:1"/><stop offset="0.67" style="stop-color:#f28f3f;stop-opacity:1"/><stop offset="0.89" style="stop-color:#ed693c;stop-opacity:1"/><stop offset="1" style="stop-color:#e83e39;stop-opacity:1"/></linearGradient><linearGradient id="_Linear4" x1="0" y1="0" x2="1" y2="0" gradientUnits="userSpaceOnUse" gradientTransform="matrix(2.95599e-15,-48.2749,48.2749,2.95599e-15,71.4732,76.0776)"><stop offset="0" style="stop-color:#fff23a;stop-opacity:1"/><stop offset="0.04" style="stop-color:#fee62d;stop-opacity:1"/><stop offset="0.12" style="stop-color:#fed41a;stop-opacity:1"/><stop offset="0.2" style="stop-color:#fdc90f;stop-opacity:1"/><stop offset="0.28" style="stop-color:#fdc60b;stop-opacity:1"/><stop offset="0.67" style="stop-color:#f28f3f;stop-opacity:1"/><stop offset="0.89" style="stop-color:#ed693c;stop-opacity:1"/><stop offset="1" style="stop-color:#e83e39;stop-opacity:1"/></linearGradient><linearGradient id="_Linear5" x1="0" y1="0" x2="1" y2="0" gradientUnits="userSpaceOnUse" gradientTransform="matrix(2.95599e-15,-48.2749,48.2749,2.95599e-15,51.9183,76.0776)"><stop offset="0" style="stop-color:#fff23a;stop-opacity:1"/><stop offset="0.04" style="stop-color:#fee62d;stop-opacity:1"/><stop offset="0.12" style="stop-color:#fed41a;stop-opacity:1"/><stop offset="0.2" style="stop-color:#fdc90f;stop-opacity:1"/><stop offset="0.28" style="stop-color:#fdc60b;stop-opacity:1"/><stop offset="0.67" style="stop-color:#f28f3f;stop-opacity:1"/><stop offset="0.89" style="stop-color:#ed693c;stop-opacity:1"/><stop offset="1" style="stop-color:#e83e39;stop-opacity:1"/></linearGradient><linearGradient id="_Linear6" x1="0" y1="0" x2="1" y2="0" gradientUnits="userSpaceOnUse" gradientTransform="matrix(2.95599e-15,-48.2749,48.2749,2.95599e-15,26.1234,76.0776)"><stop offset="0" style="stop-color:#fff23a;stop-opacity:1"/><stop offset="0.04" style="stop-color:#fee62d;stop-opacity:1"/><stop offset="0.12" style="stop-color:#fed41a;stop-opacity:1"/><stop offset="0.2" style="stop-color:#fdc90f;stop-opacity:1"/><stop offset="0.28" style="stop-color:#fdc60b;stop-opacity:1"/><stop offset="0.67" style="stop-color:#f28f3f;stop-opacity:1"/><stop offset="0.89" style="stop-color:#ed693c;stop-opacity:1"/><stop offset="1" style="stop-color:#e83e39;stop-opacity:1"/></linearGradient></defs></svg>